<svg width="94" height="94" viewBox="0 0 94 94" fill="none" xmlns="http://www.w3.org/2000/svg">
<circle cx="47" cy="47" r="47" fill="#BEC2C4"/>
<path d="M19 36.0978H27.4256C29.1531 36.0978 30.6376 36.3564 31.8789 36.8737C33.1306 37.3909 34.0926 38.1564 34.765 39.1701C35.4374 40.1839 35.7736 41.4304 35.7736 42.9097C35.7736 44.12 35.5667 45.1596 35.153 46.0286C34.7495 46.8871 34.1754 47.6061 33.4306 48.1854C32.6961 48.7543 31.8324 49.2095 30.8393 49.5509L29.3652 50.3267H22.0413L22.0103 46.6958H27.4566C28.2739 46.6958 28.9514 46.551 29.4893 46.2613C30.0272 45.9717 30.4307 45.5682 30.6996 45.051C30.9789 44.5338 31.1186 43.9338 31.1186 43.2511C31.1186 42.5269 30.9841 41.9011 30.7152 41.3735C30.4462 40.846 30.0376 40.4425 29.4893 40.1632C28.9411 39.8839 28.2532 39.7443 27.4256 39.7443H23.655V58.6902H19V36.0978ZM31.6306 58.6902L26.4791 48.6199L31.3979 48.5888L36.6115 58.473V58.6902H31.6306Z" fill="#A14A39"/>
<path d="M54.5179 55.0593V58.6902H42.4924V55.0593H54.5179ZM44.013 36.0978V58.6902H39.358V36.0978H44.013ZM52.9507 45.2993V48.8371H42.4924V45.2993H52.9507ZM54.5024 36.0978V39.7443H42.4924V36.0978H54.5024Z" fill="#A14A39"/>
<path d="M70.3295 51.1956H74.969C74.8759 52.7163 74.4569 54.0662 73.7121 55.2455C72.9776 56.4248 71.9484 57.3454 70.6243 58.0075C69.3105 58.6695 67.7278 59.0006 65.8761 59.0006C64.4279 59.0006 63.1297 58.7523 61.9814 58.2558C60.8332 57.7489 59.8505 57.0248 59.0332 56.0834C58.2264 55.1421 57.6109 54.0042 57.1868 52.6697C56.7626 51.3353 56.5506 49.8405 56.5506 48.1854V46.6182C56.5506 44.9631 56.7678 43.4683 57.2023 42.1338C57.6471 40.7891 58.2781 39.646 59.0953 38.7046C59.9229 37.7633 60.9108 37.0392 62.059 36.5323C63.2073 36.0254 64.49 35.772 65.9072 35.772C67.7899 35.772 69.3778 36.1133 70.6708 36.7961C71.9742 37.4788 72.9828 38.4202 73.6966 39.6201C74.4207 40.8201 74.8552 42.1856 75 43.7166H70.345C70.2932 42.8062 70.1122 42.0356 69.8019 41.4046C69.4915 40.7632 69.0209 40.2822 68.3899 39.9615C67.7692 39.6305 66.9416 39.465 65.9072 39.465C65.1313 39.465 64.4538 39.6098 63.8745 39.8994C63.2952 40.1891 62.809 40.6287 62.4159 41.2184C62.0228 41.808 61.728 42.5528 61.5314 43.4528C61.3452 44.3424 61.2521 45.3872 61.2521 46.5872V48.1854C61.2521 49.3543 61.3401 50.3836 61.5159 51.2732C61.6918 52.1525 61.9607 52.8973 62.3228 53.5076C62.6952 54.1076 63.1711 54.5628 63.7503 54.8731C64.34 55.1731 65.0486 55.3231 65.8761 55.3231C66.8485 55.3231 67.6502 55.1679 68.2812 54.8576C68.9123 54.5473 69.3933 54.0869 69.7243 53.4766C70.0657 52.8663 70.2674 52.106 70.3295 51.1956Z" fill="#A14A39"/>
</svg>
